<svg data-name="SF-3_Oval_Symbol" xmlns="http://www.w3.org/2000/svg" viewBox="0 0 31 18">
  <defs>
    <style>
      .cls-1 {
        fill: #ec0c21;
      }
    </style>
  </defs>
  <path shape-rendering="geometricPrecision" class="cls-1" d="M10.1626,6.9257c.8699,.5353,2.0911,.8783,3.4712,.8783s2.6097-.3429,3.4963-.8783c.8866-.5353,1.4136-1.263,1.4136-2.0242,0-.7695-.5186-1.4888-1.4052-2.0158-.8783-.5353-2.1162-.8699-3.4963-.8699-1.3717,0-2.6013,.3346-3.4712,.8699-.8783,.5353-1.3885,1.2463-1.3968,2.0158,0,.7612,.5186,1.4805,1.3885,2.0242Zm.2258,4.1403c-.8783-.5353-2.1162-.8699-3.4879-.8699-1.3801,0-2.6013,.3346-3.4796,.8615-.8783,.5353-1.3885,1.2463-1.3885,2.0158s.5102,1.4888,1.3885,2.0325c.8699,.5353,2.0911,.8783,3.4712,.8783s2.6097-.3429,3.4963-.8866c.8866-.5353,1.4052-1.263,1.4136-2.0242-.0167-.7528-.5353-1.4721-1.4136-2.0074Zm13.4749,0c-.8783-.5353-2.1162-.8699-3.4963-.8699s-2.6013,.3346-3.4796,.8615c-.8783,.5353-1.3885,1.2463-1.3885,2.0158s.5102,1.4888,1.3885,2.0325c.8699,.5353,2.0911,.8783,3.4712,.8783s2.6097-.3429,3.4963-.8866c.8866-.5353,1.4052-1.263,1.4052-2.0242,0-.7528-.5186-1.4721-1.3968-2.0074Zm-3.513-2.8773c-.6273,0-1.2212,.0585-1.7983,.1673,1.2463-.8866,2.0158-2.1162,2.0158-3.4712,0-2.7184-3.0948-4.8848-6.934-4.8848S6.7333,2.1664,6.7333,4.8848c0,1.355,.7528,2.5846,1.9907,3.4712-.5855-.1087-1.1961-.1673-1.8234-.1673-3.8392,0-6.9006,2.1664-6.9006,4.8848s3.0446,4.9266,6.8838,4.9266c3.2704,0,6.0056-1.5976,6.75-3.7556,.7277,2.158,3.421,3.7556,6.6831,3.7556,3.8392,0,6.9507-2.2082,6.9507-4.9266,.0167-2.7184-3.0781-4.8848-6.9173-4.8848ZM7.9963,4.8848c0-1.2296,.9368-2.0576,1.4805-2.4424,1.0874-.7779,2.5678-1.1961,4.1654-1.1961s3.0864,.4182,4.1822,1.1961c.552,.3848,1.4888,1.2212,1.4972,2.4424-.0167,2.0409-2.6431,3.6719-5.7045,3.6719-1.5892,0-3.0613-.4266-4.1487-1.2045-.9368-.6775-1.4721-1.5558-1.4721-2.4675Zm-1.1041,11.869c-1.5892,0-3.0613-.4266-4.1487-1.2128-.9452-.6775-1.4805-1.5558-1.4805-2.4675,.0084-1.2296,.9368-2.0576,1.4805-2.4424,1.0957-.7695,2.5678-1.1961,4.1654-1.1961s3.0864,.4266,4.1822,1.1961c.552,.3848,1.4888,1.2128,1.4972,2.4424-.0084,2.0493-2.6348,3.6719-5.6961,3.6803Zm6.7584-4.8429c-.3011-.8699-.9284-1.6394-1.7816-2.2584,.5604,.1087,1.1459,.1589,1.7481,.1589,.619,0,1.2212-.0585,1.7983-.1673-.8448,.619-1.4721,1.3885-1.7649,2.2667Zm6.6831,4.8429c-1.5892,0-3.0613-.4266-4.1487-1.2128-.9452-.6775-1.4805-1.5558-1.4805-2.4675,0-1.2296,.9368-2.0493,1.4805-2.4424,1.0874-.7695,2.5678-1.1961,4.1654-1.1961s3.0864,.4266,4.1905,1.1961c.552,.3848,1.4888,1.2212,1.4888,2.4424-.0084,2.0493-2.6348,3.6719-5.6961,3.6803Z"/>
  <path shape-rendering="geometricPrecision" class="cls-1" d="M30.8225,15.1227c0,.9284-.6608,1.631-1.5474,1.631-.8699,0-1.539-.7026-1.539-1.631,0-.9452,.6524-1.631,1.5474-1.631,.8783,0,1.539,.7026,1.539,1.631Zm-2.8857-.0084c0,.7862,.6022,1.4303,1.3383,1.4303,.7444,0,1.3383-.6441,1.3383-1.4387,0-.3848-.1422-.7612-.3848-1.0204-.2342-.2509-.5939-.4099-.9368-.4099-.7779,.0084-1.355,.619-1.355,1.4387Zm1.2714-.9201c.1924,0,.2844,.0084,.3931,.0418,.2007,.0669,.3262,.2509,.3262,.46,0,.2175-.1422,.3931-.3597,.4684l.3764,.8783h-.2593l-.3513-.8364h-.3848v.8364h-.2342v-1.8485h.4935Zm-.0167,.8281c.2258,0,.3178-.0167,.3848-.0753,.0753-.0502,.1171-.1422,.1171-.2426,0-.1338-.0585-.2342-.1756-.2677-.0669-.0335-.1673-.0418-.368-.0418h-.2007v.6273h.2426Z"/>
</svg>