<?xml version="1.0" encoding="utf-8"?>
<!-- Generator: Adobe Illustrator 26.4.1, SVG Export Plug-In . SVG Version: 6.00 Build 0)  -->
<svg version="1.1" id="SF_Logo-Red-Standard-Vert_8-2021"
	 xmlns="http://www.w3.org/2000/svg" xmlns:xlink="http://www.w3.org/1999/xlink" x="0px" y="0px" viewBox="0 0 63 39.2"
	 style="enable-background:new 0 0 63 39.2;" xml:space="preserve">
<style type="text/css">
	.st0{fill:#EC0C21;}
</style>
<g>
	<g>
		<g>
			<path class="st0" d="M27.5,29.5c-1.1-0.7-2.7-1.1-4.4-1.1c-1.7,0-3.3,0.4-4.4,1.1c-1.1,0.7-1.8,1.6-1.8,2.6c0,1,0.7,2,1.8,2.6
				c1.1,0.7,2.7,1.1,4.4,1.1c1.7,0,3.3-0.4,4.4-1.1c1.1-0.7,1.8-1.6,1.8-2.6C29.3,31.1,28.6,30.2,27.5,29.5z M27,24.6
				c1.1,0.7,2.7,1.1,4.4,1.1c1.7,0,3.3-0.4,4.4-1.1c1.1-0.7,1.8-1.6,1.8-2.6S37,20,35.9,19.3c-1.1-0.7-2.7-1.1-4.4-1.1
				c-1.7,0-3.3,0.4-4.4,1.1c-1.1,0.7-1.8,1.6-1.8,2.6C25.2,22.9,25.9,23.9,27,24.6z M44.2,29.5c-1.1-0.7-2.7-1.1-4.4-1.1
				s-3.3,0.4-4.4,1.1c-1.1,0.7-1.8,1.6-1.8,2.6c0,1,0.7,2,1.8,2.6c1.1,0.7,2.7,1.1,4.4,1.1c1.7,0,3.3-0.4,4.4-1.1
				c1.1-0.7,1.8-1.6,1.8-2.6C46,31.1,45.3,30.2,44.2,29.5z M39.8,26c-0.8,0-1.5,0.1-2.2,0.2c1.5-1.1,2.5-2.6,2.5-4.3
				c0-3.4-3.8-6.1-8.6-6.1c-4.8,0-8.6,2.7-8.6,6.1c0,1.7,0.9,3.2,2.5,4.3C24.6,26.1,23.8,26,23,26c-4.8,0-8.6,2.7-8.6,6.1
				s3.8,6.1,8.6,6.1c4.1,0,7.5-2,8.4-4.7c0.9,2.7,4.3,4.7,8.3,4.7c4.8,0,8.7-2.8,8.7-6.1C48.4,28.7,44.6,26,39.8,26z M24.5,21.9
				c0-1.5,1.1-2.5,1.8-3c1.3-1,3.2-1.5,5.2-1.5c2,0,3.8,0.5,5.2,1.5c0.7,0.5,1.8,1.5,1.8,3c0,2.5-3.2,4.5-7,4.5
				c-2,0-3.8-0.5-5.1-1.5C25.1,24.1,24.5,23,24.5,21.9z M23,36.6c-2,0-3.8-0.5-5.1-1.5c-1.2-0.8-1.8-1.9-1.8-3c0-1.5,1.1-2.5,1.8-3
				c1.4-1,3.2-1.5,5.2-1.5s3.8,0.5,5.2,1.5c0.7,0.5,1.8,1.5,1.8,3C30,34.6,26.8,36.6,23,36.6z M29.2,27.8c0.7,0.1,1.4,0.2,2.2,0.2
				c0.8,0,1.5-0.1,2.2-0.2c-1.1,0.8-1.8,1.7-2.2,2.8C31.1,29.6,30.3,28.6,29.2,27.8z M39.8,36.6c-2,0-3.8-0.5-5.1-1.5
				c-1.2-0.8-1.8-1.9-1.8-3c0-1.5,1.1-2.5,1.8-3c1.3-1,3.2-1.5,5.2-1.5c2,0,3.8,0.5,5.2,1.5c0.7,0.5,1.8,1.5,1.8,3
				C46.8,34.6,43.6,36.6,39.8,36.6z"/>
			<path class="st0" d="M50.8,35.3c0,0.7-0.5,1.3-1.2,1.3c-0.7,0-1.2-0.5-1.2-1.3c0-0.7,0.5-1.3,1.2-1.3
				C50.3,34.1,50.8,34.6,50.8,35.3z M48.5,35.3c0,0.6,0.5,1.1,1,1.1c0.6,0,1-0.5,1-1.1c0-0.3-0.1-0.6-0.3-0.8
				c-0.2-0.2-0.5-0.3-0.7-0.3C49,34.2,48.5,34.7,48.5,35.3z M49.5,34.6c0.2,0,0.2,0,0.3,0c0.2,0,0.2,0.2,0.2,0.4
				c0,0.2-0.1,0.3-0.3,0.4l0.3,0.7h-0.2l-0.3-0.7h0h-0.1h-0.1h0v0.7h-0.2v-1.5L49.5,34.6L49.5,34.6z M49.5,35.3c0.2,0,0.2,0,0.3-0.1
				c0.1,0,0.1-0.1,0.1-0.2c0-0.1,0-0.2-0.1-0.2c0,0-0.1,0-0.3,0h-0.2v0.5C49.3,35.3,49.5,35.3,49.5,35.3z"/>
		</g>
	</g>
	<g>
		<g>
			<path class="st0" d="M30.5,4c-0.4-0.3-1.1-0.4-1.7-0.4c-1.4,0-2.4,0.7-3,1.7s-1,2.2-1,3.3c0,0.8,0.1,1.6,0.6,2.2
				c0.2,0.3,0.8,1.1,2.7,1.1c1.3,0,1.9-0.3,2.3-0.5l0.1-0.1c0.1-0.3,0.3-1.6,0.4-1.9l-0.1,0c-0.7,0.5-1.4,0.9-2.2,0.9
				c-0.5,0-1-0.1-1.2-0.4s-0.4-0.6-0.4-1.1c0-0.2,0-0.3,0-0.5v0h0c1.3,0,1.9,0,3,0c0.3,0,0.8,0,1.2,0l0.1-0.1
				c0.1-0.5,0.2-1.1,0.2-1.8C31.5,5.7,31.4,4.6,30.5,4z M29.6,6.7L29.6,6.7l-1.3,0.1l-1.2,0l0,0l0,0c0-0.1,0-0.2,0.1-0.3
				c0.1-0.3,0.2-0.6,0.4-0.9c0-0.1,0.1-0.1,0.1-0.1c0.4-0.4,0.8-0.5,1-0.5c0.3,0,0.6,0.1,0.7,0.3c0,0,0,0.1,0.1,0.1
				c0.1,0.1,0.1,0.3,0.1,0.4c0,0.1,0,0.1,0,0.2C29.7,6.3,29.6,6.5,29.6,6.7z M24.7,5.3L24.7,5.3l-1.3,0.1l-0.6,2.7
				c-0.1,0.3-0.3,1.2-0.3,1.5c0,0.3,0.1,0.4,0.2,0.5c0.1,0.1,0.3,0.1,0.5,0.1c0.3,0,0.5-0.1,0.7-0.2l0,0l-0.3,1.6l-0.1,0.1
				c-0.4,0.1-0.7,0.2-1.2,0.2c-1.1,0-2-0.4-2-1.7c0-0.6,0.2-1.8,0.4-2.6l0.5-2.1l-1,0l-0.1-0.1l0.3-1.5l0.1-0.1h1l0.4-2l0.1-0.1
				c1-0.2,1.3-0.4,2.2-0.7l0,0.1L24,2.4l-0.3,1.4l1.3,0l0,0.1L24.7,5.3z M40,2.8L40,2.8l-3.3,0.1l-0.5,2.7L39,5.5l0,0.1
				c-0.2,0.8-0.3,1-0.5,1.7l-0.1,0.1l-2.7,0l-0.4,1.9L35,11.7l-0.1,0.1l-2.3,0.1l0-0.1L33,9.6l0.6-3c0.5-2.3,0.6-3,1-5.5l0.1-0.1
				h3.4L40.3,1l0,0.1L40,2.8z M44.6,4.1c-0.5-0.3-1.2-0.5-2.2-0.5c-0.5,0-1,0.1-1.5,0.1c-0.5,0.1-0.7,0.2-1,0.2L40,4l-0.3,1.7
				l0.1,0.1c0.2-0.1,0.5-0.2,0.9-0.4c0.4-0.1,0.8-0.2,1.1-0.2c0.5,0,0.9,0.1,1.1,0.2c0.3,0.1,0.5,0.5,0.5,0.8c0,0.1,0,0.2,0,0.2
				c0,0.1,0,0.1,0,0.1l0,0c0,0-0.2,0-0.3,0c-0.1,0-0.3,0-0.4,0c-0.3,0-0.6,0.1-0.9,0.1c-0.7,0.1-2.5,0.4-3.1,1.6
				c-0.6,1-0.5,2.4,0.1,3c0.2,0.2,0.5,0.5,0.9,0.5l0,0c0,0,0.1,0,0.1,0c1.6,0.2,2.8-1.1,2.8-1.1l-0.2,0.9l0.1,0.1l1.8-0.1l0.1-0.1
				l1.1-5.3c0-0.1,0-0.2,0-0.4c0-0.1,0-0.3,0-0.4C45.4,4.9,45.1,4.4,44.6,4.1z M42.8,9.4c0,0-0.4,0.7-1,0.9c-0.6,0.2-1.1,0-1.2-0.2
				C40.3,10,40,9.4,40.6,8.7C41.2,8,43,8,43,8L42.8,9.4z M51.5,3.5l-0.4,2.3L51,5.9c-0.1,0-0.3,0-0.5,0c-0.6,0-1.4,0.2-2.1,1.1l0,0
				l-0.9,4.7l-0.1,0.1l-2,0.1l0,0l1.6-8L47,3.7l2-0.2l0.1,0.1l-0.2,1.1L49,4.6c0.4-0.4,0.8-0.6,1.2-0.9c0.4-0.2,0.8-0.3,1.2-0.3
				C51.4,3.4,51.4,3.4,51.5,3.5L51.5,3.5z M62.1,5.5c0,0.5-0.1,1-0.2,1.5L61,11.7l-0.1,0.1l-2.1,0.1l-0.1-0.1c0,0,1.1-5.2,1.1-5.4
				c0-0.2-0.1-0.9-0.8-0.9C58.5,5.4,58,6,58,6l-1.1,5.7l-0.1,0.1l-0.9,0l0,0l-0.8,0l-0.4,0l0,0l0,0c0,0,0.2-0.8,0.4-1.8l0,0
				c0.3-1.5,0.7-3.5,0.7-3.7c0-0.2-0.1-0.9-0.8-0.9c-0.5,0-1.1,0.5-1.1,0.5l-1.1,5.7l-0.1,0.1l-0.3,0l-1.8,0.1l0-0.1l1.5-8l0.1-0.1
				l2.1-0.2l0.1,0.1l-0.2,1.1c0,0,1-1.1,2.3-1.1c1.2,0,1.4,1.1,1.4,1.1s1.2-1.1,2.4-1.1C60.9,3.6,62.1,3.9,62.1,5.5z M18.9,4.1
				c-0.5-0.3-1.2-0.5-2.2-0.5c-0.5,0-1,0.1-1.5,0.1c-0.4,0.1-0.7,0.2-1,0.2L14.2,4l-0.3,1.7L14,5.8c0.2-0.1,0.5-0.2,0.9-0.4
				c0.4-0.1,0.8-0.2,1.1-0.2c0.5,0,0.9,0.1,1.1,0.2c0.3,0.1,0.5,0.5,0.5,0.8c0,0.1,0,0.2,0,0.2c0,0.1,0,0.1,0,0.1v0c0,0-0.2,0-0.3,0
				c-0.1,0-0.3,0-0.4,0c-0.3,0-0.6,0.1-0.9,0.1c-0.7,0.1-2.5,0.4-3.1,1.6c-0.6,1-0.5,2.4,0.1,3c0.2,0.2,0.5,0.5,0.9,0.5l0,0
				c0,0,0.1,0,0.1,0c1.6,0.2,2.8-1.1,2.8-1.1l-0.2,0.9l0.1,0.1l1.8-0.1l0.1-0.1l1.1-5.3c0-0.1,0-0.2,0-0.4c0-0.1,0-0.3,0-0.4
				C19.7,4.9,19.4,4.4,18.9,4.1z M17.1,9.4c0,0-0.4,0.7-1,0.9c-0.6,0.2-1.1,0-1.2-0.2c-0.1-0.2-0.4-0.8,0.1-1.5
				C15.4,8,17.3,8,17.3,8L17.1,9.4z M12.7,5.3L12.7,5.3l-1.3,0.1l-0.6,2.7c-0.1,0.3-0.3,1.2-0.3,1.5c0,0.3,0.1,0.4,0.2,0.5
				c0.1,0.1,0.3,0.1,0.5,0.1c0.3,0,0.5-0.1,0.7-0.2l0,0l-0.3,1.6l-0.1,0.1c-0.4,0.1-0.7,0.2-1.2,0.2c-1.1,0-2-0.4-2-1.7
				c0-0.6,0.2-1.8,0.4-2.6l0.5-2.1l-1,0L8.3,5.3l0.3-1.5l0.1-0.1h1l0.4-2l0.1-0.1c1-0.2,1.3-0.4,2.2-0.7l0,0.1L12,2.4l-0.3,1.4
				l1.3,0l0,0.1L12.7,5.3z M8.1,1.6L7.7,3.6l-0.1,0C7.4,3.4,7.4,3.3,7.1,3.2c-0.5-0.4-1-0.6-1.6-0.6C5.1,2.6,4.8,2.7,4.5,3
				C4.3,3.2,4.1,3.5,4.1,3.9c0,0.7,0.5,1,1.3,1.5l0.3,0.2C6.4,6,7.5,6.7,7.5,8.3c0,1.8-1.2,3.6-3.9,3.6c-0.7,0-1.4-0.1-2-0.4
				c-0.4-0.2-0.6-0.3-0.9-0.5l0-0.1L1,9.1l0.1,0c0.2,0.2,0.4,0.4,0.7,0.6c0.7,0.5,1.3,0.5,1.6,0.5c1,0,1.7-0.6,1.8-1.4
				c0-0.8-0.6-1.2-1.3-1.5L3.4,6.9C2.7,6.4,1.8,5.8,1.8,4.2c0-0.6,0.2-1.5,0.7-2.2c0.7-0.9,1.8-1.3,2.9-1.3C6.8,0.8,7.6,1.3,8.1,1.6
				L8.1,1.6z"/>
		</g>
	</g>
</g>
</svg>
